<svg xmlns="http://www.w3.org/2000/svg" version="1.1" xmlns:xlink="http://www.w3.org/1999/xlink" xmlns:svgjs="http://svgjs.dev/svgjs" width="1000" height="257" viewBox="0 0 1000 257"><g transform="matrix(1,0,0,1,-0.6060601214622352,-0.17615394082500302)"><svg viewBox="0 0 396 102" data-background-color="#ffffff" preserveAspectRatio="xMidYMid meet" height="257" width="1000" xmlns="http://www.w3.org/2000/svg" xmlns:xlink="http://www.w3.org/1999/xlink"><g id="tight-bounds" transform="matrix(1,0,0,1,0.24000019190089006,0.06991323721459253)"><svg viewBox="0 0 395.52 101.8601704427354" height="101.8601704427354" width="395.52"><g><svg viewBox="0 0 395.52 101.8601704427354" height="101.8601704427354" width="395.52"><g><svg viewBox="0 0 395.52 101.8601704427354" height="101.8601704427354" width="395.52"><g id="textblocktransform"><svg viewBox="0 0 395.52 101.8601704427354" height="101.8601704427354" width="395.52" id="textblock"><g><svg viewBox="0 0 395.52 101.8601704427354" height="101.8601704427354" width="395.52"><g transform="matrix(1,0,0,1,0,0)"><svg width="395.52" viewBox="-6.489999771118164 -50.83000183105469 235.87001037597656 60.5" height="101.8601704427354" data-palette-color="#0718c4"><g class="wordmark-text-0" data-fill-palette-color="primary" id="text-0"><path d="M42.33-49.17L42.33-49.17Q41.65-48.49 40.97-47.83 40.28-47.17 39.89-46.19L39.89-46.19Q39.31-46.09 38.67-45.95 38.04-45.8 37.45-45.8L37.45-45.8Q37.06-45.8 36.67-45.92 36.28-46.04 35.89-46.04L35.89-46.04Q35.55-46.04 35.55-45.7 35.55-45.36 35.35-45.17L35.35-45.17Q34.96-45.31 34.52-45.36 34.08-45.41 33.64-45.41L33.64-45.41Q32.62-45.41 31.62-45.09 30.62-44.78 29.64-44.36 28.66-43.95 27.69-43.51 26.71-43.07 25.68-42.82L25.68-42.82Q25.73-42.77 25.73-42.58L25.73-42.58Q25.73-42.24 25.54-42.02 25.34-41.8 25.34-41.46L25.34-41.46 25.34-41.31Q25.93-40.04 26.51-38.87 27.1-37.7 27.64-36.43L27.64-36.43Q27.93-35.79 28.13-35.21 28.32-34.62 28.56-33.94L28.56-33.94Q28.66-33.54 28.91-33.42 29.15-33.3 29.39-33.06L29.39-33.06Q29.3-32.76 29.3-32.52L29.3-32.52Q29.3-31.59 29.74-30.74 30.18-29.88 30.18-29L30.18-29Q30.18-28.76 30.08-28.37L30.08-28.37Q30.66-27.54 30.91-26.46 31.15-25.39 31.35-24.29 31.54-23.19 31.76-22.14 31.98-21.09 32.57-20.26L32.57-20.26Q32.23-19.68 32.13-19.02 32.03-18.36 32.03-17.68L32.03-17.68Q32.03-16.11 32.35-14.53 32.67-12.94 32.67-11.38L32.67-11.38Q32.67-10.3 32.42-9.62L32.42-9.62Q32.52-8.89 32.91-8.54L32.91-8.54Q32.71-8.2 32.76-7.74 32.81-7.28 32.57-6.93L32.57-6.93Q32.81-5.96 32.81-5.13L32.81-5.13Q32.81-3.91 32.5-2.71 32.18-1.51 32.18-0.24L32.18-0.24Q32.18 0.1 32.23 0.42 32.28 0.73 32.42 1.12L32.42 1.12Q32.32 1.42 32.06 1.49 31.79 1.56 31.69 1.81L31.69 1.81 31.69 1.95Q31.69 2.69 31.52 3.25 31.35 3.81 31.1 4.3L31.1 4.3 30.66 5.32Q30.47 5.86 30.32 6.49L30.32 6.49Q29.05 7.18 27.91 7.81 26.76 8.45 25.68 9.52L25.68 9.52Q25.49 9.57 25.1 9.57L25.1 9.57Q24.76 9.57 24.41 9.55 24.07 9.52 23.68 9.52L23.68 9.52Q23.14 9.52 22.56 9.67L22.56 9.67Q21.78 8.94 20.65 8.62 19.53 8.3 18.55 7.76L18.55 7.76Q18.21 7.32 17.77 6.98L17.77 6.98 16.89 6.3Q16.46 5.96 16.06 5.62 15.67 5.27 15.38 4.74L15.38 4.74 14.7 4.74Q14.7 4.69 14.72 4.64 14.75 4.59 14.75 4.54L14.75 4.54Q14.75 4.3 14.5 4.25 14.26 4.2 14.36 3.91L14.36 3.91Q13.77 3.47 13.38 2.88 12.99 2.29 12.6 1.68 12.21 1.07 11.82 0.51 11.43-0.05 10.84-0.49L10.84-0.49 10.84-0.59Q10.84-0.83 10.69-0.9 10.55-0.98 10.64-1.37L10.64-1.37Q9.86-2.39 9.33-3.52 8.79-4.64 8.33-5.83 7.86-7.03 7.4-8.2 6.93-9.38 6.3-10.45L6.3-10.45Q6.2-10.94 6.2-11.43L6.2-11.43 6.2-12.4Q6.2-13.82 6.45-15.11 6.69-16.41 7.37-17.63L7.37-17.63Q7.76-17.72 8.28-17.7 8.79-17.68 9.23-17.68L9.23-17.68Q9.67-17.68 10.08-17.75 10.5-17.82 10.84-18.16L10.84-18.16Q10.79-17.97 10.94-17.9 11.08-17.82 11.23-17.82L11.23-17.82Q11.47-17.82 11.69-17.9 11.91-17.97 12.16-17.97L12.16-17.97Q12.26-17.97 12.43-17.92 12.6-17.87 12.6-17.63L12.6-17.63Q12.89-17.72 13.13-17.87 13.38-18.02 13.67-18.16L13.67-18.16Q14.5-17.43 15.63-17.07 16.75-16.7 17.92-16.38 19.09-16.06 20.21-15.7 21.34-15.33 22.22-14.65L22.22-14.65Q22.46-14.16 22.46-13.62L22.46-13.62Q22.46-12.79 21.78-12.18 21.09-11.57 20.31-11.33L20.31-11.33Q19.19-12.11 17.8-12.45 16.41-12.79 15.19-13.43L15.19-13.43Q14.21-13.04 13.06-13.01 11.91-12.99 10.84-12.89L10.84-12.89Q10.6-12.7 10.67-12.21 10.74-11.72 10.5-11.47L10.5-11.47Q11.13-9.57 12.16-7.79 13.18-6.01 14.01-4.15L14.01-4.15Q14.11-3.86 14.36-3.74 14.6-3.61 14.84-3.47L14.84-3.47 14.84-3.32Q14.84-3.03 14.99-2.91 15.14-2.78 15.04-2.39L15.04-2.39Q15.63-2.29 15.89-1.76 16.16-1.22 16.46-0.83L16.46-0.83Q16.65-0.59 16.87-0.39 17.09-0.2 17.29 0.05L17.29 0.05Q18.12 0.98 19.09 2 20.07 3.03 21.14 3.56L21.14 3.56Q21.29 3.66 21.41 3.66 21.53 3.66 21.68 3.71L21.68 3.71Q22.22 4 22.85 4.27 23.49 4.54 24.17 4.54L24.17 4.54Q24.51 4.54 24.88 4.39 25.24 4.25 25.34 3.91L25.34 3.91Q25.59 3.47 25.71 2.91 25.83 2.34 25.93 1.86L25.93 1.86Q26.32 0.44 26.68-0.98 27.05-2.39 27.29-3.81L27.29-3.81Q27.2-4.44 27.15-5.08 27.1-5.71 27.1-6.35L27.1-6.35Q27.1-7.47 27.17-8.59 27.25-9.72 27.25-10.84L27.25-10.84Q27.25-11.87 27.12-12.87 27-13.87 26.61-14.84L26.61-14.84Q26.71-15.04 26.86-15.14 27-15.23 27-15.48L27-15.48Q27-15.77 26.83-16.28 26.66-16.8 26.42-16.94L26.42-16.94Q26.76-17.43 26.76-18.16L26.76-18.16Q26.76-18.99 26.51-19.82 26.27-20.65 26.27-21.48L26.27-21.48Q26.27-22.02 26.42-22.56L26.42-22.56Q26.42-22.9 26.07-22.9 25.73-22.9 25.68-23.24L25.68-23.24Q25.68-23.34 25.71-23.44 25.73-23.54 25.73-23.63L25.73-23.63Q25.73-24.27 25.56-24.83 25.39-25.39 25.34-26.03L25.34-26.03Q24.9-26.51 24.71-27.25 24.51-27.98 24.32-28.74 24.12-29.49 23.88-30.18 23.63-30.86 23.1-31.3L23.1-31.3Q23.1-31.93 22.92-32.62 22.75-33.3 22.07-33.59L22.07-33.59Q21.78-34.72 21.29-35.69 20.8-36.67 19.97-37.45L19.97-37.45Q19.97-38.62 19.51-39.26 19.04-39.89 18.36-40.72L18.36-40.72Q17.24-40.63 16.11-40.28 14.99-39.94 13.87-39.94L13.87-39.94Q13.57-39.94 13.31-39.97 13.04-39.99 12.74-40.04L12.74-40.04Q12.5-39.89 12.45-39.58 12.4-39.26 12.4-39.01L12.4-39.01Q11.52-38.92 10.69-38.7 9.86-38.48 9.01-38.26 8.15-38.04 7.32-37.89 6.49-37.74 5.62-37.79L5.62-37.79Q5.27-37.11 4.64-36.89 4-36.67 3.3-36.57 2.59-36.47 1.9-36.33 1.22-36.18 0.83-35.69L0.83-35.69Q0.63-35.89 0.34-35.89L0.34-35.89Q-0.05-35.89-0.42-35.69-0.78-35.5-1.22-35.5L-1.22-35.5Q-1.56-35.5-1.76-35.69L-1.76-35.69Q-2.1-35.45-2.51-35.33-2.93-35.21-3.17-34.81L-3.17-34.81Q-4-34.96-4.64-35.45-5.27-35.94-5.69-36.62-6.1-37.3-6.3-38.11-6.49-38.92-6.49-39.7L-6.49-39.7Q-6.2-40.23-5.57-40.43-4.93-40.63-4.54-41.11L-4.54-41.11Q-4.2-40.97-3.88-40.84-3.56-40.72-3.17-40.72L-3.17-40.72Q-2.69-40.72-2.34-40.92-2-41.11-1.61-41.11L-1.61-41.11Q-1.37-41.11-1.07-40.97L-1.07-40.97Q-0.73-41.26-0.24-41.33 0.24-41.41 0.71-41.48 1.17-41.55 1.56-41.7 1.95-41.85 2.1-42.33L2.1-42.33Q2.54-42.19 3.03-42.19L3.03-42.19Q3.61-42.19 4.2-42.36 4.79-42.53 5.27-42.72 5.76-42.92 6.15-43.09 6.54-43.26 6.69-43.26L6.69-43.26Q6.93-43.26 7.18-43.14 7.42-43.02 7.67-43.02L7.67-43.02Q8.15-43.02 8.62-43.31 9.08-43.6 9.47-43.9L9.47-43.9Q9.86-43.7 10.21-43.7L10.21-43.7Q10.89-43.7 11.6-44.09 12.3-44.48 13.13-44.48L13.13-44.48Q13.48-44.48 13.67-44.43L13.67-44.43Q14.79-44.97 16.38-45.41 17.97-45.85 19.24-45.85L19.24-45.85Q19.92-46.44 20.85-46.68 21.78-46.92 22.75-47.07 23.73-47.22 24.68-47.46 25.63-47.71 26.42-48.29L26.42-48.29Q26.66-48.19 27-48.17 27.34-48.14 27.49-47.95L27.49-47.95Q27.73-48.05 27.83-48.29 27.93-48.54 27.98-48.78L27.98-48.78Q28.03-48.83 28.17-48.83L28.17-48.83Q28.42-48.83 28.37-48.63 28.32-48.44 28.56-48.44L28.56-48.44Q28.71-48.44 29.08-48.61 29.44-48.78 29.98-48.97 30.52-49.17 31.15-49.34 31.79-49.51 32.37-49.51L32.37-49.51 32.57-49.51 32.81-49.56Q33.06-49.66 33.35-49.73 33.64-49.8 33.91-49.9 34.18-50 34.28-50L34.28-50Q35.35-50.34 36.5-50.59 37.65-50.83 38.77-50.83L38.77-50.83Q39.84-50.83 40.77-50.46 41.7-50.1 42.33-49.17ZM71.38-28.27L71.38-28.27Q71.09-27.83 71.04-27.29 70.99-26.76 70.99-26.32L70.99-26.32Q70.99-25.73 71.02-25.17 71.04-24.61 71.04-24.07L71.04-24.07 71.04-23.34Q70.94-23 70.75-22.66 70.55-22.31 70.46-21.97L70.46-21.97Q69.77-20.17 69.77-18.36L69.77-18.36 69.77-18.26Q69.53-17.68 69.31-17.19 69.09-16.7 68.89-16.24 68.7-15.77 68.6-15.26 68.5-14.75 68.55-14.06L68.55-14.06Q67.87-12.35 66.75-10.96 65.62-9.57 64.55-8.11L64.55-8.11Q63.52-7.71 62.67-7.08 61.81-6.45 61.03-5.66L61.03-5.66Q59.52-5.18 58.05-4.54 56.59-3.91 55.42-2.83L55.42-2.83Q54.49-2.73 53.56-2.54 52.63-2.34 51.76-1.95L51.76-1.95 51.17-1.95Q50.73-1.95 50.53-2.15L50.53-2.15Q49.9-1.81 49.22-1.68 48.53-1.56 47.85-1.56L47.85-1.56Q46.97-1.56 46.12-1.68 45.26-1.81 44.38-1.95L44.38-1.95Q43.89-2.64 43.02-3 42.14-3.37 41.45-3.71L41.45-3.71Q40.04-5.66 39.4-7.5 38.77-9.33 38.08-11.62L38.08-11.62Q38.18-12.3 38.43-12.96 38.67-13.62 38.62-14.4L38.62-14.4Q39.5-16.94 40.94-19.02 42.38-21.09 44.24-23L44.24-23Q44.24-23.29 44.36-23.49 44.48-23.68 44.38-24.07L44.38-24.07Q44.43-24.02 44.58-24.02L44.58-24.02Q44.97-24.02 45.07-24.24 45.16-24.46 45.11-24.76L45.11-24.76Q46.87-25.88 48.31-27.34 49.75-28.81 51.61-29.79L51.61-29.79Q51.76-30.22 52.1-30.52 52.44-30.81 52.63-31.2L52.63-31.2Q54.2-31.64 55.47-32.52 56.74-33.4 58.15-34.08L58.15-34.08Q58.93-34.52 59.64-34.69 60.35-34.86 61.18-35.06L61.18-35.06Q61.47-35.16 61.72-35.21 61.96-35.25 62.25-35.25L62.25-35.25Q63.13-35.25 63.96-34.94 64.79-34.62 65.67-34.62L65.67-34.62Q65.92-34.62 66.09-34.64 66.26-34.67 66.45-34.72L66.45-34.72Q67.28-33.69 68.55-33.15L68.55-33.15Q68.85-32.42 69.26-31.88 69.68-31.35 70.11-30.83 70.55-30.32 70.92-29.71 71.29-29.1 71.38-28.27ZM66.5-25.73L66.5-25.73Q66.5-25.98 66.45-26.17L66.45-26.17Q65.96-26.32 65.52-26.56 65.09-26.81 64.55-26.81L64.55-26.81Q64.21-26.81 63.86-26.66L63.86-26.66Q63.82-27 63.6-27.15 63.38-27.29 63.11-27.42 62.84-27.54 62.57-27.61 62.3-27.69 62.11-27.88L62.11-27.88Q61.96-28.27 61.79-28.69 61.62-29.1 61.18-29.3L61.18-29.3Q60.74-28.86 60.15-28.59 59.57-28.32 58.96-28.08 58.35-27.83 57.79-27.49 57.22-27.15 56.83-26.66L56.83-26.66 55.95-26.66Q55.66-26.12 55.12-25.85 54.59-25.59 54.2-25.1L54.2-25.1Q53.42-24.71 52.76-24.15 52.1-23.58 51.46-22.97 50.83-22.36 50.22-21.73 49.61-21.09 48.92-20.56L48.92-20.56Q48.29-19.19 47.53-18.19 46.77-17.19 46.12-16.16 45.46-15.14 44.99-13.94 44.53-12.74 44.53-10.99L44.53-10.99 44.53-10.5Q44.53-10.25 44.58-10.01L44.58-10.01Q45.21-9.33 45.63-8.54 46.04-7.76 47.02-7.42L47.02-7.42Q48-7.03 49.09-7.08 50.19-7.13 51.22-6.84L51.22-6.84Q53.56-7.28 55.73-8.28 57.91-9.28 59.86-10.69L59.86-10.69Q60.15-10.94 60.54-11.21 60.94-11.47 61.18-11.77L61.18-11.77Q61.42-12.01 61.59-12.3 61.77-12.6 61.96-12.84L61.96-12.84Q62.35-13.48 62.84-14.11 63.33-14.75 63.86-15.28L63.86-15.28Q64.11-16.36 64.5-17.36 64.89-18.36 65.28-19.34 65.67-20.31 65.94-21.34 66.21-22.36 66.21-23.49L66.21-23.49Q66.21-23.73 66.18-24.02 66.16-24.32 66.11-24.56L66.11-24.56Q66.5-25.1 66.5-25.73ZM137.2-8.5L137.2-8.5Q137.1-7.76 136.69-7.37 136.27-6.98 135.74-6.64L135.74-6.64Q135.49-6.69 135.27-6.71 135.05-6.74 134.81-6.74L134.81-6.74Q133.3-6.79 131.95-6.35 130.61-5.91 129.19-5.71L129.19-5.71Q128.71-5.62 128.29-5.64 127.88-5.66 127.44-5.57L127.44-5.57Q125.87-5.32 124.12-5.18 122.36-5.03 120.6-4.81 118.84-4.59 117.16-4.27 115.47-3.96 114.01-3.37L114.01-3.37Q113.86-3.47 113.72-3.59 113.57-3.71 113.37-3.71L113.37-3.71Q112.89-3.71 112.45-3.56 112.01-3.42 111.57-3.47L111.57-3.47Q111.08-3.17 110.52-3.05 109.96-2.93 109.39-2.86 108.83-2.78 108.3-2.64 107.76-2.49 107.27-2.1L107.27-2.1Q106.88-2.29 106.32-2.32 105.76-2.34 105.56-2.69L105.56-2.69Q104.44-2.15 103.19-2 101.95-1.86 100.68-1.9L100.68-1.9Q99.85-1.95 98.77-2.15 97.7-2.34 96.63-2.71 95.55-3.08 94.62-3.59 93.7-4.1 93.21-4.83L93.21-4.83Q92.87-5.32 92.72-5.91 92.57-6.49 92.04-6.79L92.04-6.79Q92.18-7.91 92.38-8.98 92.57-10.06 92.77-11.18L92.77-11.18Q93.75-12.01 94.62-12.94 95.5-13.87 96.28-14.89L96.28-14.89Q97.21-15.33 98.02-15.97 98.82-16.6 99.63-17.26 100.43-17.92 101.24-18.55 102.05-19.19 102.97-19.68L102.97-19.68Q103.12-20.02 103.39-20.24 103.66-20.46 103.95-20.68 104.24-20.9 104.49-21.17 104.73-21.44 104.83-21.83L104.83-21.83Q106.54-22.85 107.81-24.41 109.08-25.98 109.47-27.93L109.47-27.93Q108.64-28.61 107.59-28.83 106.54-29.05 105.41-29.15L105.41-29.15Q104.44-29.2 103.39-29.15 102.34-29.1 101.26-29.2L101.26-29.2Q100.19-28.86 99.04-28.76 97.9-28.66 96.77-28.59 95.65-28.52 94.55-28.3 93.45-28.08 92.43-27.49L92.43-27.49Q92.23-27.49 92.06-27.54 91.89-27.59 91.69-27.59L91.69-27.59Q90.13-27.64 88.76-26.98 87.4-26.32 86.08-25.68L86.08-25.68Q85.98-25.49 85.98-25.39L85.98-25.39Q85.98-25.1 86.1-24.83 86.23-24.56 86.23-24.27L86.23-24.27Q86.18-24.22 86.18-24.17 86.18-24.12 86.13-24.07L86.13-24.07Q86.08-23.83 86.01-23.63 85.93-23.44 85.83-23.19L85.83-23.19Q85.3-21.63 85.25-20.12L85.25-20.12Q85.2-18.85 85.25-17.63 85.3-16.41 85.25-15.14L85.25-15.14Q85.15-13.57 84.76-12.21L84.76-12.21Q85-11.04 85.2-9.74 85.4-8.45 85.69-7.18 85.98-5.91 86.4-4.71 86.81-3.52 87.5-2.44L87.5-2.44Q87.45-2.34 87.54-2.29 87.64-2.25 87.74-2.25L87.74-2.25 88.13-2.25Q88.37-2.25 88.33-2.05L88.33-2.05Q88.42-1.9 88.47-1.78 88.52-1.66 88.67-1.56L88.67-1.56Q88.76-1.42 88.67-1.17L88.67-1.17Q88.62-0.2 88.18 0.63 87.74 1.46 87.64 2.44L87.64 2.44Q87.06 2.59 86.57 2.59L86.57 2.59Q85.74 2.54 85.1 2.12 84.47 1.71 83.93 1.12 83.39 0.54 82.91-0.07 82.42-0.68 81.83-1.12L81.83-1.12Q81.49-2.49 81.17-4.15 80.85-5.81 80.12-6.98L80.12-6.98Q80.32-7.42 80.32-8.06L80.32-8.06Q80.37-9.03 80.15-9.99 79.93-10.94 80.02-11.91L80.02-11.91Q80.02-12.45 80.15-12.99 80.27-13.53 80.32-14.06L80.32-14.06Q80.37-14.89 80.15-15.67 79.93-16.46 79.98-17.29L79.98-17.29Q80.02-17.68 80.15-18.04 80.27-18.41 80.51-18.7L80.51-18.7Q80.27-19.29 80.37-19.82L80.37-19.82Q80.41-20.65 80.56-21.39 80.71-22.12 80.76-22.85L80.76-22.85Q80.76-23.24 80.71-23.61 80.66-23.97 80.56-24.32L80.56-24.32 80.12-24.46Q79.83-24.46 79.56-24.32 79.29-24.17 79.1-23.97 78.9-23.78 78.75-23.66 78.61-23.54 78.46-23.54L78.46-23.54Q78.36-23.54 78.24-23.56 78.12-23.58 78.02-23.58L78.02-23.58Q77.92-23.58 77.66-23.39 77.39-23.19 77.02-22.97 76.66-22.75 76.31-22.53 75.97-22.31 75.78-22.27L75.78-22.27Q75.24-22.36 74.92-22.63 74.6-22.9 74.34-23.17 74.07-23.44 73.77-23.66 73.48-23.88 73.04-23.83L73.04-23.83Q72.9-24.12 72.87-24.46 72.85-24.8 72.9-25.15L72.9-25.15 72.9-25.93Q73.24-26.56 73.8-26.98 74.36-27.39 75-27.69L75-27.69 76.26-28.27Q76.9-28.56 77.44-29L77.44-29 77.88-29Q78.75-28.96 79.41-29.35 80.07-29.74 80.66-30.25 81.25-30.76 81.86-31.3 82.47-31.84 83.2-32.13L83.2-32.13Q83.74-31.88 84.32-31.71 84.91-31.54 85.54-31.49L85.54-31.49Q86.18-31.49 86.86-31.69 87.54-31.88 87.93-32.42L87.93-32.42Q88.18-32.32 88.35-32.3 88.52-32.28 88.76-32.28L88.76-32.28Q89.5-32.23 90.23-32.5 90.96-32.76 91.65-33.15L91.65-33.15Q92.62-33.11 93.57-33.28 94.53-33.45 95.48-33.64 96.43-33.84 97.38-34.01 98.33-34.18 99.31-34.13L99.31-34.13Q100.92-34.08 102.49-34.42 104.05-34.77 105.66-34.67L105.66-34.67Q106.78-34.62 107.88-34.5 108.98-34.38 110.1-34.42L110.1-34.42Q110.74-34.13 111.25-33.91 111.76-33.69 112.54-33.79L112.54-33.79Q114.11-32.47 115.38-30.71L115.38-30.71 115.38-29.88Q115.33-28.76 114.99-27.69 114.64-26.61 114.18-25.56 113.72-24.51 113.18-23.51 112.64-22.51 112.15-21.53L112.15-21.53Q108.98-18.65 105.81-15.82 102.63-12.99 99.26-10.35L99.26-10.35Q99.16-9.86 98.99-9.47 98.82-9.08 98.77-8.64L98.77-8.64Q98.77-8.4 98.82-8.25L98.82-8.25Q99.16-8.15 99.43-7.89 99.7-7.62 99.6-7.18L99.6-7.18 100.04-7.18Q100.29-7.18 100.29-6.98L100.29-6.98 101.07-6.93Q102.92-6.84 104.78-7.03 106.64-7.23 108.52-7.47 110.4-7.71 112.25-7.93 114.11-8.15 115.96-8.2L115.96-8.2Q116.4-8.35 116.89-8.45 117.38-8.54 117.77-8.84L117.77-8.84 117.91-8.84Q118.26-8.84 118.43-8.64 118.6-8.45 118.94-8.4L118.94-8.4Q119.18-8.4 119.45-8.5 119.72-8.59 120.01-8.64L120.01-8.64Q120.7-8.84 121.45-8.89 122.21-8.94 122.94-9.03L122.94-9.03Q125.78-9.28 128.56-9.35 131.34-9.42 134.13-10.06L134.13-10.06Q134.37-9.72 134.81-9.59 135.25-9.47 135.74-9.35 136.23-9.23 136.64-9.08 137.06-8.94 137.2-8.5ZM165.23-31.4L165.37-31.4Q165.18-30.76 164.74-30.22L164.74-30.22 163.91-29.2Q163.52-28.71 163.25-28.15 162.98-27.59 163.08-26.86L163.08-26.86Q162.98-26.86 162.83-26.88 162.69-26.9 162.59-26.9L162.59-26.9Q161.81-26.9 161.39-26.54 160.98-26.17 160.3-25.93L160.3-25.93Q160.2-26.22 160.05-26.49 159.9-26.76 159.61-26.86L159.61-26.86Q158.44-26.61 157.27-26.49 156.1-26.37 154.92-26.17L154.92-26.17Q154.39-26.07 153.85-25.9 153.31-25.73 152.73-25.59L152.73-25.59Q152.43-25.49 152.09-25.51 151.75-25.54 151.41-25.49L151.41-25.49Q150.24-25.44 148.87-25.32 147.5-25.2 146.43-24.56L146.43-24.56Q145.94-24.66 145.4-24.71 144.87-24.76 144.33-24.76L144.33-24.76Q143.16-24.76 141.76-24.54 140.37-24.32 139.3-23.68L139.3-23.68Q139.06-23.78 138.79-23.83 138.52-23.88 138.18-23.88L138.18-23.88Q138.08-23.88 138.03-23.85 137.98-23.83 137.88-23.83L137.88-23.83Q137.83-23.39 138.01-22.97 138.18-22.56 138.62-22.31L138.62-22.31Q138.42-21.78 138.42-21.14L138.42-21.14Q138.42-20.31 138.54-19.48 138.66-18.65 138.66-17.82L138.66-17.82Q138.66-16.89 138.42-16.36L138.42-16.36Q138.91-14.89 138.91-13.23L138.91-13.23Q138.91-12.65 138.84-12.08 138.76-11.52 138.76-10.89L138.76-10.89Q138.76-10.35 139.15-10.03 139.54-9.72 139.54-9.18L139.54-9.18Q139.54-8.98 139.45-8.79L139.45-8.79Q140.13-8.94 140.76-9.2 141.4-9.47 142.08-9.47L142.08-9.47Q142.47-9.47 142.84-9.33 143.21-9.18 143.5-8.94L143.5-8.94Q143.45-8.69 143.43-8.4 143.4-8.11 143.4-7.81L143.4-7.81Q143.4-7.28 143.43-6.81 143.45-6.35 143.5-5.81L143.5-5.81Q143.11-5.13 142.6-4.59 142.08-4.05 141.89-3.22L141.89-3.22Q141.15-3.22 140.59-2.91 140.03-2.59 139.54-2.22 139.06-1.86 138.57-1.54 138.08-1.22 137.49-1.22L137.49-1.22Q136.76-1.22 136.47-1.44 136.17-1.66 136.03-1.9 135.88-2.15 135.76-2.34 135.64-2.54 135.25-2.49L135.25-2.49Q135.15-3.13 134.86-3.69 134.56-4.25 134.25-4.79 133.93-5.32 133.61-5.88 133.29-6.45 133.15-7.03L133.15-7.03Q132.85-8.3 132.9-9.67 132.95-11.04 132.46-12.3L132.46-12.3Q132.56-12.99 132.61-13.7 132.66-14.4 132.66-15.09L132.66-15.09Q132.66-16.46 132.59-17.8 132.51-19.14 132.46-20.56L132.46-20.56Q132.12-21 132.05-21.56 131.97-22.12 131.93-22.66L131.93-22.66Q131.78-22.8 131.61-22.95 131.44-23.1 131.39-23.34L131.39-23.34Q131-23.44 130.8-23.44L130.8-23.44Q130.12-23.44 129.66-23.12 129.19-22.8 128.8-22.8L128.8-22.8Q128.41-22.8 128.07-22.9 127.73-23 127.39-23L127.39-23Q127.09-23 127.07-22.88 127.04-22.75 126.85-22.66L126.85-22.66Q126.7-22.56 126.16-22.46 125.63-22.36 124.97-22.29 124.31-22.22 123.7-22.17 123.09-22.12 122.89-22.12L122.89-22.12Q122.11-22.12 121.7-22.44 121.28-22.75 120.7-23.14L120.7-23.14Q120.79-23.44 120.79-23.54L120.79-23.54Q120.79-24.02 120.5-24.34 120.21-24.66 120.21-24.9L120.21-24.9Q120.21-25.44 120.62-25.73 121.04-26.03 121.09-26.66L121.09-26.66Q122.21-27.15 123.38-27.39 124.55-27.64 125.77-27.78 126.99-27.93 128.19-28.13 129.39-28.32 130.56-28.76L130.56-28.76Q130.9-28.71 131.22-28.69 131.54-28.66 131.88-28.66L131.88-28.66Q133.34-28.66 134.78-28.98 136.22-29.3 137.74-29.3L137.74-29.3Q138.13-29.3 138.52-29.25 138.91-29.2 139.3-29.1L139.3-29.1Q141.25-29.39 143.18-29.74 145.11-30.08 147.16-30.32L147.16-30.32Q148.14-30.42 149.09-30.49 150.04-30.57 151.02-30.71L151.02-30.71Q151.36-30.76 151.53-30.88 151.7-31.01 151.7-31.4L151.7-31.4Q152.14-31.2 152.68-31.2L152.68-31.2Q153.51-31.2 154.29-31.49 155.07-31.79 155.9-31.79L155.9-31.79Q156.1-31.79 156.24-31.76 156.39-31.74 156.54-31.74L156.54-31.74Q156.88-31.74 156.9-32.06 156.93-32.37 157.37-32.47L157.37-32.47Q157.71-32.57 158.34-32.62 158.98-32.67 159.68-32.74 160.39-32.81 161-32.93 161.61-33.06 161.91-33.3L161.91-33.3 162.25-33.84Q163.13-33.79 163.54-33.08 163.96-32.37 164.01-31.54L164.01-31.54Q164.2-31.35 164.57-31.37 164.93-31.4 165.23-31.4L165.23-31.4ZM169.08-6.69L169.08-6.69Q168.84-6.3 168.5-5.98 168.15-5.66 167.86-5.32L167.86-5.32Q167.52-5.18 167.1-5.18 166.69-5.18 166.32-5.2 165.96-5.22 165.64-5.2 165.32-5.18 165.13-4.98L165.13-4.98Q164.74-5.08 164.54-5.35 164.35-5.62 163.86-5.66L163.86-5.66Q163.66-5.71 163.47-5.66L163.47-5.66Q162.73-6.49 162.12-7.42 161.51-8.35 160.98-9.18L160.98-9.18Q160.93-10.99 160.68-12.84L160.68-12.84Q160.63-13.28 160.54-13.72 160.44-14.16 160.39-14.55L160.39-14.55Q160.39-15.04 160.46-15.5 160.54-15.97 160.59-16.36L160.59-16.36Q160.78-17.77 161.03-19.14 161.27-20.51 161.46-21.92L161.46-21.92Q161.66-23.19 161.66-24.58 161.66-25.98 161.22-27.2L161.22-27.2 161.17-27.44Q161.27-27.83 161.39-28.1 161.51-28.37 161.56-28.71L161.56-28.71Q161.66-29.25 161.32-29.49L161.32-29.49Q161.46-29.88 161.81-30 162.15-30.13 162.2-30.57L162.2-30.57Q162.25-30.76 162.2-30.96L162.2-30.96Q162.59-31.1 163-31.23 163.42-31.35 163.81-31.25L163.81-31.25Q164.44-31.15 164.93-30.83 165.42-30.52 165.86-30.13L165.86-30.13Q166.64-27.78 166.49-25.17 166.35-22.56 166.01-19.92 165.66-17.29 165.57-14.77 165.47-12.26 166.35-10.11L166.35-10.11 166.45-10.06Q166.69-10.01 166.84-10.23 166.98-10.45 167.23-10.4L167.23-10.4Q167.42-10.3 167.47-10.3L167.47-10.3Q167.67-9.33 168.11-8.45 168.54-7.57 169.08-6.69ZM229.38-12.16L229.38-12.16Q229.19-11.33 228.63-10.86 228.06-10.4 227.33-10.16 226.6-9.91 225.79-9.81 224.99-9.72 224.35-9.67L224.35-9.67Q223.67-9.33 223.13-8.91 222.59-8.5 222.01-8.11L222.01-8.11Q217.71-7.57 213.51-6.79 209.31-6.01 205.02-5.47L205.02-5.47Q204.43-5.08 203.5-4.96 202.58-4.83 201.57-4.76 200.57-4.69 199.6-4.52 198.62-4.35 197.89-3.91L197.89-3.91Q194.71-3.76 191.74-2.83L191.74-2.83Q191.2-2.98 190.64-3.08 190.08-3.17 189.54-3.17L189.54-3.17Q189.15-3.17 188.66-3.1 188.17-3.03 187.88-2.64L187.88-2.64Q186.71-3.56 185.09-3.32L185.09-3.32Q183.78-3.91 182.78-4.79 181.77-5.66 181.24-7.03L181.24-7.03Q181.29-7.81 181.24-8.23 181.19-8.64 180.55-9.13L180.55-9.13Q180.55-9.47 180.77-9.67 180.99-9.86 181.04-10.21L181.04-10.21Q180.85-10.55 180.85-11.04L180.85-11.04Q180.85-11.87 181.14-12.72 181.43-13.57 181.24-14.4L181.24-14.4Q181.92-15.53 182.8-16.53 183.68-17.53 184.58-18.48 185.49-19.43 186.39-20.41 187.29-21.39 188.07-22.46L188.07-22.46Q189-22.75 189.76-23.36 190.51-23.97 191.22-24.66 191.93-25.34 192.66-25.98 193.4-26.61 194.37-27L194.37-27Q194.47-27.29 194.69-27.51 194.91-27.73 195.15-27.93 195.4-28.13 195.62-28.37 195.84-28.61 195.93-28.96L195.93-28.96 195.5-28.96Q193.3-28.96 191.1-28.69 188.9-28.42 186.73-28.05 184.56-27.69 182.41-27.29 180.26-26.9 178.06-26.66L178.06-26.66Q177.23-26.22 176.26-25.88 175.28-25.54 174.33-25.2 173.38-24.85 172.47-24.41 171.57-23.97 170.89-23.34L170.89-23.34Q170.74-23.29 170.45-23.29L170.45-23.29Q169.91-23.29 169.52-23.51 169.13-23.73 168.64-23.83L168.64-23.83Q168.54-24.61 168.32-25.32 168.1-26.03 168.1-26.81L168.1-26.81Q168.1-27.44 168.3-27.88L168.3-27.88Q168.98-27.88 169.25-28.32 169.52-28.76 170.06-29.1L170.06-29.1Q170.2-28.96 170.35-28.96L170.35-28.96Q170.59-28.96 170.79-29.15 170.98-29.35 171.28-29.54 171.57-29.74 171.96-29.88 172.35-30.03 172.99-29.98L172.99-29.98Q174.45-30.76 175.74-30.96 177.04-31.15 178.6-31.4L178.6-31.4Q178.99-31.49 179.14-31.64 179.28-31.79 179.48-32.08L179.48-32.08 180.51-32.03Q182.6-31.93 184.7-32.3 186.8-32.67 188.88-33.11 190.95-33.54 193.08-33.86 195.2-34.18 197.35-33.98L197.35-33.98Q197.89-34.23 198.45-34.28 199.01-34.33 199.6-34.33L199.6-34.33Q200.38-34.33 201.31-34.18 202.23-34.03 203.04-33.64 203.84-33.25 204.36-32.59 204.87-31.93 204.87-30.96L204.87-30.96Q204.87-30.42 204.63-29.98 204.38-29.54 204.04-29.15 203.7-28.76 203.31-28.39 202.92-28.03 202.58-27.69L202.58-27.69Q202.04-27.1 201.57-26.44 201.11-25.78 200.48-25.24L200.48-25.24Q200.13-25.29 199.96-25.1 199.79-24.9 199.45-24.9L199.45-24.9Q198.82-24.61 198.72-23.83L198.72-23.83Q197.4-23.29 196.18-22.56 194.96-21.83 194.18-20.56L194.18-20.56Q193.15-19.92 192.25-19.12 191.34-18.31 190.51-17.43 189.68-16.55 188.88-15.65 188.07-14.75 187.19-13.92L187.19-13.92Q187.1-13.18 186.85-12.55 186.61-11.91 186.32-11.23L186.32-11.23Q186.32-10.69 186.66-10.3 187-9.91 187-9.28L187-9.28Q188.22-9.03 189.42-8.91 190.61-8.79 191.88-8.79L191.88-8.79Q193.1-8.79 194.32-8.96 195.54-9.13 196.62-9.67L196.62-9.67Q197.35-9.47 198.13-9.47L198.13-9.47Q199.21-9.47 200.21-9.69 201.21-9.91 202.23-9.86L202.23-9.86Q203.45-10.3 204.75-10.47 206.04-10.64 207.31-10.77 208.58-10.89 209.88-11.08 211.17-11.28 212.39-11.82L212.39-11.82Q213.07-11.67 213.66-11.77 214.25-11.87 214.93-11.87L214.93-11.87Q215.42-11.87 216.1-11.57L216.1-11.57Q216.88-11.96 217.74-12.26 218.59-12.55 219.47-12.55L219.47-12.55Q219.81-12.55 220.15-12.5 220.5-12.45 220.79-12.3L220.79-12.3Q220.89-12.35 221.28-12.5 221.67-12.65 222.11-12.79 222.55-12.94 222.94-13.06 223.33-13.18 223.43-13.18L223.43-13.18Q223.82-13.18 223.79-12.96 223.77-12.74 224.01-12.74L224.01-12.74Q224.84-12.74 225.62-13.06 226.4-13.38 227.23-13.38L227.23-13.38Q227.58-13.38 227.87-13.33 228.16-13.28 228.55-13.18L228.55-13.18Q228.75-12.89 228.89-12.57 229.04-12.26 229.38-12.16Z" fill="#0718c4" data-fill-palette-color="primary"></path></g></svg></g></svg></g></svg></g></svg></g></svg></g><defs></defs></svg><rect width="395.52" height="101.8601704427354" fill="none" stroke="none" visibility="hidden"></rect></g></svg></g></svg>